<svg xmlns="http://www.w3.org/2000/svg" viewBox="0 0 20 20">
    <style>
        .text {
            fill: #336799;
            stroke: black;
            stroke-width: .125;
            font-size: 16px;
        }
        .grid {
            stroke: black;
            stroke-width: .25;
        }
    </style>
    <path d="M0 0H20V20H0z" fill="white" />
    <!--
    <path d="M0 10 A10 10 180 0 0 20 10V20H0z" fill="black" stroke="none" />
    <path d="M20 10 A10 10 180 0 0 0 10V0H20z" fill="black" stroke="none" />
    -->
    <path d="M0 0H20" class="grid" />
    <path d="M0 5H20" class="grid" />
    <path d="M0 10H20" class="grid" />
    <path d="M0 15H20" class="grid" />
    <path d="M0 20H20" class="grid" />
    <path d="M0 0V20" class="grid" />
    <path d="M5 0V20" class="grid" />
    <path d="M10 0V20" class="grid" />
    <path d="M15 0V20" class="grid" />
    <path d="M20 0V20" class="grid" />
    <path d="M11 2.5h-7.5v1l3 4l-3 4v1h7.5v-1h-6.5l3-4l-3-4h6.5z" class="text" />
    <path d="M9 7.5h7.5v10h-1v-9h-5.5v9h-1z" class="text" />
</svg>
