<svg xmlns="http://www.w3.org/2000/svg" viewBox="0 0 20 20">
    <style>
        .text {
            fill: #336799;
            stroke: black;
            stroke-width: .125;
            font-size: 16px;
        }
        .grid {
            stroke: black;
            stroke-width: 1;
        }
    </style>
    <path d="M0 0H20V20H0z" fill="white" />
    <!--
    <path d="M0 10 A10 10 180 0 0 20 10V20H0z" fill="black" stroke="none" />
    <path d="M20 10 A10 10 180 0 0 0 10V0H20z" fill="black" stroke="none" />
    -->
    <path d="M0 0H20" class="grid" />
    <path d="M0 5H20" class="grid" />
    <path d="M0 10H20" class="grid" />
    <path d="M0 15H20" class="grid" />
    <path d="M0 20H20" class="grid" />
    <path d="M0 0V20" class="grid" />
    <path d="M5 0V20" class="grid" />
    <path d="M10 0V20" class="grid" />
    <path d="M15 0V20" class="grid" />
    <path d="M20 0V20" class="grid" />
    <text x="3" y="12.5" class="text">Σ</text>
    <text x="9" y="17" class="text">Π</text>
</svg>
